<mxfile host="app.diagrams.net" modified="2023-09-18T18:19:08.014Z" agent="Mozilla/5.0 (Windows NT 10.0; Win64; x64) AppleWebKit/537.36 (KHTML, like Gecko) Chrome/116.0.0.0 Safari/537.36" etag="XFcQezT4JtrkoQ-x9J3W" version="21.7.5" type="device">
  <diagram name="Страница — 1" id="5FlnnQDGNjz4LqMGSBjq">
    <mxGraphModel dx="1434" dy="783" grid="1" gridSize="10" guides="1" tooltips="1" connect="1" arrows="1" fold="1" page="1" pageScale="1" pageWidth="827" pageHeight="1169" math="0" shadow="0">
      <root>
        <mxCell id="0" />
        <mxCell id="1" parent="0" />
        <mxCell id="nLweEpR1zvfkGfckUDrx-21" style="edgeStyle=orthogonalEdgeStyle;rounded=0;orthogonalLoop=1;jettySize=auto;html=1;exitX=0.5;exitY=1;exitDx=0;exitDy=0;entryX=0.5;entryY=0;entryDx=0;entryDy=0;" edge="1" parent="1" source="nLweEpR1zvfkGfckUDrx-1" target="nLweEpR1zvfkGfckUDrx-19">
          <mxGeometry relative="1" as="geometry" />
        </mxCell>
        <mxCell id="nLweEpR1zvfkGfckUDrx-1" value="Начало" style="ellipse;whiteSpace=wrap;html=1;fontFamily=Times New Roman;fontSize=14;" vertex="1" parent="1">
          <mxGeometry x="354" y="50" width="120" height="40" as="geometry" />
        </mxCell>
        <mxCell id="nLweEpR1zvfkGfckUDrx-5" style="edgeStyle=orthogonalEdgeStyle;rounded=0;orthogonalLoop=1;jettySize=auto;html=1;exitX=0.5;exitY=1;exitDx=0;exitDy=0;entryX=0.5;entryY=0;entryDx=0;entryDy=0;" edge="1" parent="1" source="nLweEpR1zvfkGfckUDrx-2" target="nLweEpR1zvfkGfckUDrx-4">
          <mxGeometry relative="1" as="geometry" />
        </mxCell>
        <mxCell id="nLweEpR1zvfkGfckUDrx-2" value="i =0; i &amp;lt; n; i++" style="shape=loopLimit;whiteSpace=wrap;html=1;" vertex="1" parent="1">
          <mxGeometry x="349" y="169" width="130" height="40" as="geometry" />
        </mxCell>
        <mxCell id="nLweEpR1zvfkGfckUDrx-14" style="edgeStyle=orthogonalEdgeStyle;rounded=0;orthogonalLoop=1;jettySize=auto;html=1;exitX=0.5;exitY=1;exitDx=0;exitDy=0;entryX=0.5;entryY=0;entryDx=0;entryDy=0;" edge="1" parent="1" source="nLweEpR1zvfkGfckUDrx-3" target="nLweEpR1zvfkGfckUDrx-13">
          <mxGeometry relative="1" as="geometry" />
        </mxCell>
        <mxCell id="nLweEpR1zvfkGfckUDrx-3" value="" style="shape=loopLimit;whiteSpace=wrap;html=1;flipV=1;" vertex="1" parent="1">
          <mxGeometry x="349" y="379" width="130" height="40" as="geometry" />
        </mxCell>
        <mxCell id="nLweEpR1zvfkGfckUDrx-9" style="edgeStyle=orthogonalEdgeStyle;rounded=0;orthogonalLoop=1;jettySize=auto;html=1;exitX=1;exitY=0.5;exitDx=0;exitDy=0;entryX=0.5;entryY=0;entryDx=0;entryDy=0;" edge="1" parent="1" source="nLweEpR1zvfkGfckUDrx-4" target="nLweEpR1zvfkGfckUDrx-7">
          <mxGeometry relative="1" as="geometry" />
        </mxCell>
        <mxCell id="nLweEpR1zvfkGfckUDrx-12" style="edgeStyle=orthogonalEdgeStyle;rounded=0;orthogonalLoop=1;jettySize=auto;html=1;exitX=0;exitY=0.5;exitDx=0;exitDy=0;entryX=0.5;entryY=0;entryDx=0;entryDy=0;" edge="1" parent="1" source="nLweEpR1zvfkGfckUDrx-4" target="nLweEpR1zvfkGfckUDrx-3">
          <mxGeometry relative="1" as="geometry">
            <Array as="points">
              <mxPoint x="324" y="269" />
              <mxPoint x="324" y="359" />
              <mxPoint x="414" y="359" />
            </Array>
          </mxGeometry>
        </mxCell>
        <mxCell id="nLweEpR1zvfkGfckUDrx-4" value="(i + 1) % 2 == 0" style="rhombus;whiteSpace=wrap;html=1;" vertex="1" parent="1">
          <mxGeometry x="344" y="229" width="140" height="80" as="geometry" />
        </mxCell>
        <mxCell id="nLweEpR1zvfkGfckUDrx-11" style="edgeStyle=orthogonalEdgeStyle;rounded=0;orthogonalLoop=1;jettySize=auto;html=1;exitX=0.5;exitY=1;exitDx=0;exitDy=0;entryX=0.5;entryY=0;entryDx=0;entryDy=0;" edge="1" parent="1" source="nLweEpR1zvfkGfckUDrx-7" target="nLweEpR1zvfkGfckUDrx-3">
          <mxGeometry relative="1" as="geometry" />
        </mxCell>
        <mxCell id="nLweEpR1zvfkGfckUDrx-7" value="sum += array[i]" style="rounded=0;whiteSpace=wrap;html=1;" vertex="1" parent="1">
          <mxGeometry x="479" y="299" width="120" height="40" as="geometry" />
        </mxCell>
        <mxCell id="nLweEpR1zvfkGfckUDrx-16" style="edgeStyle=orthogonalEdgeStyle;rounded=0;orthogonalLoop=1;jettySize=auto;html=1;exitX=0.5;exitY=1;exitDx=0;exitDy=0;entryX=0.5;entryY=0;entryDx=0;entryDy=0;" edge="1" parent="1" source="nLweEpR1zvfkGfckUDrx-13" target="nLweEpR1zvfkGfckUDrx-15">
          <mxGeometry relative="1" as="geometry" />
        </mxCell>
        <mxCell id="nLweEpR1zvfkGfckUDrx-13" value="sum" style="shape=parallelogram;perimeter=parallelogramPerimeter;whiteSpace=wrap;html=1;fixedSize=1;" vertex="1" parent="1">
          <mxGeometry x="354" y="449" width="120" height="40" as="geometry" />
        </mxCell>
        <mxCell id="nLweEpR1zvfkGfckUDrx-15" value="Конец" style="ellipse;whiteSpace=wrap;html=1;fontFamily=Times New Roman;fontSize=14;" vertex="1" parent="1">
          <mxGeometry x="354" y="509" width="120" height="40" as="geometry" />
        </mxCell>
        <mxCell id="nLweEpR1zvfkGfckUDrx-17" value="-" style="text;html=1;strokeColor=none;fillColor=none;align=center;verticalAlign=middle;whiteSpace=wrap;rounded=0;" vertex="1" parent="1">
          <mxGeometry x="310" y="239" width="60" height="30" as="geometry" />
        </mxCell>
        <mxCell id="nLweEpR1zvfkGfckUDrx-18" value="+" style="text;html=1;strokeColor=none;fillColor=none;align=center;verticalAlign=middle;whiteSpace=wrap;rounded=0;" vertex="1" parent="1">
          <mxGeometry x="450" y="239" width="60" height="30" as="geometry" />
        </mxCell>
        <mxCell id="nLweEpR1zvfkGfckUDrx-20" style="edgeStyle=orthogonalEdgeStyle;rounded=0;orthogonalLoop=1;jettySize=auto;html=1;exitX=0.5;exitY=1;exitDx=0;exitDy=0;entryX=0.5;entryY=0;entryDx=0;entryDy=0;" edge="1" parent="1" source="nLweEpR1zvfkGfckUDrx-19" target="nLweEpR1zvfkGfckUDrx-2">
          <mxGeometry relative="1" as="geometry" />
        </mxCell>
        <mxCell id="nLweEpR1zvfkGfckUDrx-19" value="sum=0" style="rounded=0;whiteSpace=wrap;html=1;" vertex="1" parent="1">
          <mxGeometry x="354" y="110" width="120" height="40" as="geometry" />
        </mxCell>
      </root>
    </mxGraphModel>
  </diagram>
</mxfile>
